<svg id="Capa_1" data-name="Capa 1" xmlns="http://www.w3.org/2000/svg" viewBox="0 0 129.03 105.11"><defs><style>.cls-1{fill:#fff;stroke:#fff;stroke-miterlimit:10;}</style></defs><g id="_000000ff" data-name="#000000ff"><path class="cls-1" d="M271,324.35c10.35-.64,20.76-.21,31.12-.24,3.25,1.53,2.82,7.47.7,9.92-9.49.4-19-.07-28.52.21-6.64.5-12.31,6.62-12,13.33,0,19,0,38,0,57-.35,6.78,5.55,13,12.28,13.35,9.21.27,18.44-.08,27.66.15,2.63.52,1.81,3.59,2,5.52-.12,1.58.13,4.28-2.05,4.49-9.22.12-18.44,0-27.67,0-11.82,0-22.57-10.67-22.43-22.53,0-19,0-38,0-57C251,337.21,260,326.34,271,324.35Z" transform="translate(-251.5 -323.5)"/><path class="cls-1" d="M325.37,331.51c-.18-3.39,4.16-6.23,7.16-4.47a22.66,22.66,0,0,1,3.91,3.48q21.07,21,42.16,42c2.21,2,1.72,5.73-.5,7.52Q356,402,334,424c-2.77,3.35-8.84.85-8.63-3.39-.09-7.93,0-15.87,0-23.81-12.28,0-24.55,0-36.83,0a5,5,0,0,1-5.06-5.13q0-15.57,0-31.14a5,5,0,0,1,5.06-5.15c12.29,0,24.58,0,36.87,0Q325.32,343.42,325.37,331.51Z" transform="translate(-251.5 -323.5)"/></g></svg>