<svg id="Capa_1" data-name="Capa 1" xmlns="http://www.w3.org/2000/svg" viewBox="0 0 104 108"><defs><style>.cls-1,.cls-2{fill:#fff;}.cls-2{fill-rule:evenodd;}</style></defs><path class="cls-1" d="M224.5,309.5c0,11.18-8.73,20.25-19.5,20.25s-19.5-9.07-19.5-20.25,8.73-20.25,19.5-20.25S224.5,298.32,224.5,309.5Z" transform="translate(-153 -269)"/><path class="cls-2" d="M153,323c0-29.82,23.28-54,52-54s52,24.18,52,54-23.28,54-52,54S153,352.82,153,323Zm52-47.25c-25.13,0-45.5,21.16-45.5,47.25a48.39,48.39,0,0,0,10,29.5c4.61-7.72,14.77-16,35.54-16s30.92,8.27,35.54,16c15.69-20.39,12.49-50.12-7.14-66.41A44.46,44.46,0,0,0,205,275.75Z" transform="translate(-153 -269)"/></svg>